<?xml version="1.0" standalone="no"?>
<!DOCTYPE svg PUBLIC "-//W3C//DTD SVG 20010904//EN"
 "http://www.w3.org/TR/2001/REC-SVG-20010904/DTD/svg10.dtd">
<svg version="1.0" xmlns="http://www.w3.org/2000/svg"
 width="1000.000000pt" height="300.000000pt" viewBox="0 0 1000.000000 300.000000"
 preserveAspectRatio="xMidYMid meet">
<metadata>
Created by potrace 1.15, written by Peter Selinger 2001-2017
</metadata>
<g transform="translate(0.000000,300.000000) scale(0.100000,-0.100000)"
fill="#8833FF" stroke="none">
<path d="M400 1480 l0 -1350 1345 0 1345 0 0 1350 0 1350 -1345 0 -1345 0 0
-1350z m720 665 l0 -65 29 0 c32 0 63 -32 54 -56 -3 -8 -1 -20 5 -27 12 -15
14 -127 2 -127 -5 0 -8 -14 -8 -31 1 -35 -14 -49 -54 -49 l-28 0 0 -211 c0
-126 4 -218 10 -230 10 -17 22 -19 115 -19 57 0 110 3 119 6 14 5 16 42 16
306 l0 300 -25 30 c-14 16 -25 38 -25 49 0 16 -7 19 -40 19 -41 0 -80 26 -80
53 0 27 25 37 97 37 l73 0 0 40 c0 29 4 40 15 40 11 0 15 -11 15 -38 0 -34 4
-40 35 -54 19 -9 37 -12 40 -8 3 5 132 9 288 9 237 1 284 4 293 16 6 8 25 15
42 15 17 0 33 4 36 9 7 11 115 11 122 0 3 -5 19 -9 35 -9 17 0 32 -6 35 -15 5
-11 23 -15 75 -15 39 0 69 -4 69 -10 0 -6 -28 -10 -65 -10 l-65 0 0 -29 c0
-32 -32 -63 -56 -54 -8 3 -20 1 -27 -5 -15 -12 -127 -14 -127 -2 0 5 -14 8
-31 8 -35 -1 -49 14 -49 55 l0 27 -211 0 c-126 0 -218 -4 -230 -10 -17 -10
-19 -22 -19 -115 0 -57 3 -110 6 -119 5 -14 42 -16 306 -16 l300 0 30 25 c16
14 38 25 49 25 16 0 19 7 19 40 0 41 26 80 53 80 27 0 37 -25 37 -97 l0 -73
40 0 c29 0 40 -4 40 -15 0 -11 -11 -15 -38 -15 -34 0 -40 -4 -54 -35 -9 -19
-12 -37 -8 -40 5 -3 9 -132 9 -288 1 -237 4 -284 16 -293 8 -6 15 -25 15 -42
0 -17 4 -33 9 -36 4 -3 8 -30 8 -61 0 -31 -4 -58 -8 -61 -5 -3 -9 -19 -9 -35
0 -17 -6 -32 -15 -35 -11 -5 -15 -23 -15 -75 0 -39 -4 -69 -10 -69 -6 0 -10
28 -10 65 l0 65 -29 0 c-32 0 -63 32 -54 56 3 8 1 20 -5 27 -12 15 -14 127 -2
127 5 0 8 14 8 31 -1 35 14 49 55 49 l27 0 0 211 c0 126 -4 218 -10 230 -10
17 -22 19 -115 19 -57 0 -110 -3 -119 -6 -14 -5 -16 -42 -16 -306 l0 -300 25
-30 c14 -16 25 -38 25 -49 0 -16 7 -19 40 -19 41 0 80 -26 80 -53 0 -27 -25
-37 -97 -37 l-73 0 0 -40 c0 -29 -4 -40 -15 -40 -11 0 -15 11 -15 38 0 34 -4
40 -35 54 -19 9 -37 12 -40 8 -3 -5 -132 -9 -288 -9 -237 -1 -284 -4 -293 -16
-6 -8 -25 -15 -42 -15 -17 0 -33 -4 -36 -9 -3 -4 -30 -8 -61 -8 -31 0 -58 4
-61 8 -3 5 -19 9 -35 9 -17 0 -32 6 -35 15 -5 11 -23 15 -75 15 -39 0 -69 4
-69 10 0 6 28 10 65 10 l65 0 0 29 c0 32 32 63 56 54 8 -3 20 -1 27 5 15 12
127 14 127 2 0 -5 14 -8 31 -8 35 1 49 -14 49 -54 l0 -28 211 0 c126 0 218 4
230 10 17 10 19 22 19 115 0 57 -3 110 -6 119 -5 14 -42 16 -306 16 l-300 0
-30 -25 c-16 -14 -38 -25 -49 -25 -16 0 -19 -7 -19 -40 0 -41 -26 -80 -53 -80
-27 0 -37 25 -37 97 l0 73 -40 0 c-29 0 -40 4 -40 15 0 11 11 15 38 15 34 0
40 4 54 35 9 19 12 37 8 40 -5 3 -9 132 -9 288 -1 237 -4 284 -16 293 -8 6
-15 25 -15 42 0 17 -4 33 -9 36 -11 7 -11 115 0 122 5 3 9 19 9 35 0 17 6 32
15 35 11 5 15 23 15 75 0 39 4 69 10 69 6 0 10 -28 10 -65z"/>
<path d="M2135 2136 c-16 -5 -36 -10 -42 -12 -8 -2 -13 -20 -13 -44 0 -33 3
-40 19 -40 16 0 20 8 23 37 5 59 28 54 28 -7 0 -44 3 -51 18 -48 13 2 18 15
20 51 4 56 22 64 22 10 0 -46 13 -68 34 -60 11 5 16 19 16 52 0 54 18 60 22 8
2 -30 7 -38 23 -38 22 0 30 24 21 61 -5 18 -13 24 -35 24 -15 0 -31 3 -35 8
-11 10 -85 9 -121 -2z"/>
<path d="M1236 2102 c-12 -20 25 -42 70 -42 41 0 44 -2 44 -26 0 -15 12 -38
30 -56 27 -27 30 -36 30 -94 0 -69 7 -77 48 -48 20 14 22 23 22 123 0 141 -3
145 -140 149 -59 2 -100 0 -104 -6z"/>
<path d="M1500 1970 l0 -130 40 0 40 0 0 130 0 130 -40 0 -40 0 0 -130z"/>
<path d="M1103 2054 c-7 -3 -13 -19 -13 -34 0 -16 -4 -31 -9 -34 -10 -6 -8
-92 2 -102 4 -4 7 -22 7 -41 0 -33 1 -33 45 -33 38 0 45 3 45 20 0 17 -7 20
-40 20 -29 0 -40 4 -40 15 0 11 12 15 51 15 43 0 50 3 47 18 -2 13 -15 18 -51
20 -56 4 -64 22 -9 22 45 0 67 13 59 34 -4 11 -19 16 -46 16 -52 0 -63 18 -14
22 30 2 38 7 38 23 0 15 -7 20 -30 22 -16 1 -36 0 -42 -3z"/>
<path d="M2346 1975 c-10 -10 -16 -33 -16 -61 0 -41 -2 -44 -26 -44 -15 0 -38
-12 -56 -30 -27 -27 -36 -30 -94 -30 -69 0 -77 -7 -48 -48 14 -20 23 -22 123
-22 140 0 145 4 149 137 4 101 -4 126 -32 98z"/>
<path d="M1585 1820 c-4 -7 -28 -11 -59 -9 -28 1 -66 -1 -83 -6 l-33 -7 0
-215 c0 -133 -4 -222 -11 -234 -7 -15 -7 -24 1 -34 7 -9 10 -32 7 -57 -2 -24
1 -60 7 -80 l11 -38 213 0 c132 0 221 -4 233 -11 15 -7 24 -7 34 1 9 7 32 10
57 7 24 -2 60 1 81 7 l37 11 0 213 c0 132 4 221 11 233 7 15 7 24 -1 34 -7 9
-10 32 -7 57 2 24 -1 60 -7 80 l-11 37 -220 3 c-121 2 -227 7 -236 11 -11 5
-20 4 -24 -3z"/>
<path d="M2110 1680 l0 -40 130 0 130 0 0 40 0 40 -130 0 -130 0 0 -40z"/>
<path d="M1120 1270 l0 -40 130 0 130 0 0 40 0 40 -130 0 -130 0 0 -40z"/>
<path d="M1134 1189 c-15 -17 -20 -40 -22 -116 -2 -53 0 -99 6 -105 18 -18 42
21 42 68 0 41 2 44 26 44 15 0 38 12 56 30 27 27 36 30 94 30 69 0 77 7 48 48
-14 20 -23 22 -123 22 -97 0 -110 -2 -127 -21z"/>
<path d="M2310 1121 c0 -16 8 -20 37 -23 59 -5 54 -28 -6 -28 -44 0 -51 -3
-51 -20 0 -18 7 -20 55 -20 30 0 55 -4 55 -10 0 -5 -19 -10 -42 -10 -51 0 -73
-12 -65 -34 5 -11 19 -16 52 -16 54 0 60 -18 8 -22 -30 -2 -38 -7 -38 -23 0
-22 24 -30 61 -21 18 5 24 13 24 36 0 16 4 31 9 34 10 6 8 92 -2 102 -4 4 -7
22 -7 41 0 33 -1 33 -45 33 -38 0 -45 -3 -45 -19z"/>
<path d="M2032 1114 c-20 -14 -22 -23 -22 -123 0 -140 4 -145 137 -149 53 -2
99 0 105 6 18 18 -21 42 -68 42 -41 0 -44 2 -44 26 0 15 -12 38 -30 56 -27 27
-30 36 -30 94 0 69 -7 77 -48 48z"/>
<path d="M1910 980 l0 -130 40 0 40 0 0 130 0 130 -40 0 -40 0 0 -130z"/>
<path d="M1237 923 c-4 -3 -7 -26 -7 -50 0 -53 -18 -57 -22 -5 -2 29 -7 37
-23 37 -22 0 -30 -24 -21 -61 5 -18 13 -24 36 -24 16 0 31 -4 34 -9 6 -9 81
-8 106 2 8 3 26 7 40 9 22 3 25 9 28 46 3 37 1 42 -17 42 -18 0 -21 -6 -21
-40 0 -29 -4 -40 -15 -40 -11 0 -15 12 -15 51 0 43 -3 50 -17 47 -13 -2 -19
-15 -21 -48 -4 -59 -22 -78 -22 -23 0 23 -3 48 -6 57 -6 16 -26 21 -37 9z"/>
<path d="M3690 1886 l0 -296 30 0 30 0 0 94 0 94 128 4 c167 6 219 30 257 121
29 70 14 154 -37 206 -54 55 -87 64 -255 69 l-153 4 0 -296z m305 226 c71 -24
98 -67 93 -145 -8 -104 -65 -137 -242 -137 l-96 0 0 150 0 150 98 0 c64 -1
114 -7 147 -18z"/>
<path d="M4290 1885 l0 -295 205 0 205 0 0 25 0 25 -175 0 -175 0 0 115 0 115
150 0 c143 0 150 1 150 20 0 19 -7 20 -150 20 l-150 0 0 110 0 110 170 0 170
0 0 25 0 25 -200 0 -200 0 0 -295z"/>
<path d="M4860 1885 l0 -295 205 0 205 0 0 25 0 25 -180 0 -181 0 3 113 3 112
153 3 c144 2 152 4 152 22 0 19 -7 20 -155 20 l-155 0 0 110 0 110 175 0 175
0 0 25 0 25 -200 0 -200 0 0 -295z"/>
<path d="M5420 1886 l0 -296 30 0 30 0 0 95 0 95 105 0 104 0 68 -95 c57 -81
71 -95 95 -95 15 0 28 3 28 6 0 4 -29 47 -65 95 -36 49 -65 93 -65 97 0 4 17
16 37 27 130 70 118 265 -21 338 -36 18 -61 22 -193 25 l-153 4 0 -296z m324
218 c104 -54 100 -206 -7 -254 -33 -15 -65 -20 -149 -20 l-108 0 0 151 0 151
113 -4 c88 -2 120 -7 151 -24z"/>
<path d="M4423 1280 c-126 -25 -195 -117 -164 -220 20 -67 68 -94 250 -140 58
-15 94 -51 82 -82 -13 -38 -48 -49 -133 -45 -55 3 -90 10 -125 28 l-49 24 -21
-47 -22 -48 22 -15 c70 -50 264 -65 347 -28 71 32 102 72 108 138 9 106 -31
145 -194 188 -50 14 -101 30 -112 36 -44 23 -35 83 14 101 41 16 120 11 180
-9 l55 -20 9 22 c31 80 31 73 -6 91 -32 15 -148 37 -184 35 -8 -1 -34 -5 -57
-9z"/>
<path d="M4949 1276 c-31 -6 -72 -24 -91 -38 -91 -69 -89 -201 3 -257 17 -10
74 -31 127 -46 54 -14 107 -33 120 -41 41 -27 22 -86 -34 -100 -49 -12 -149 1
-202 27 l-51 25 -21 -47 c-11 -26 -20 -50 -20 -52 0 -3 22 -14 48 -25 64 -28
171 -44 235 -36 130 16 197 78 197 183 0 39 -6 56 -26 81 -35 41 -61 53 -179
85 -107 28 -135 45 -135 81 0 71 130 86 261 30 12 -5 21 5 36 42 l21 49 -35
17 c-31 15 -145 37 -183 35 -8 0 -40 -6 -71 -13z"/>
<path d="M6063 1280 c-109 -23 -166 -82 -166 -176 0 -91 39 -128 177 -164 111
-29 135 -39 152 -66 12 -18 13 -27 4 -44 -30 -55 -160 -54 -290 4 -12 5 -22
-5 -38 -39 l-22 -45 23 -14 c49 -31 123 -48 213 -49 80 -1 98 3 147 27 70 34
99 77 99 145 0 97 -40 132 -201 175 -48 13 -98 29 -109 35 -44 23 -35 83 14
101 41 16 130 11 185 -9 l50 -20 20 46 c10 24 17 48 14 52 -17 28 -200 56
-272 41z"/>
<path d="M6602 1279 c-72 -14 -124 -49 -149 -99 -28 -53 -29 -93 -5 -140 24
-49 66 -73 179 -104 121 -34 143 -47 143 -86 0 -23 -7 -33 -31 -46 -48 -24
-160 -16 -226 17 l-52 25 -20 -48 -20 -48 22 -15 c67 -47 262 -65 342 -31 78
33 115 86 115 165 0 39 -6 56 -26 81 -35 40 -65 55 -175 85 -140 37 -168 67
-114 120 37 38 134 34 236 -9 12 -5 21 4 37 41 l21 48 -34 17 c-19 10 -65 22
-102 28 -77 11 -82 11 -141 -1z"/>
<path d="M3697 992 c-70 -158 -127 -290 -127 -294 0 -5 29 -8 63 -8 l64 0 28
65 27 65 138 0 138 0 27 -65 28 -65 68 0 68 0 -50 113 c-28 61 -87 194 -132
295 l-81 182 -66 0 -65 -1 -128 -287z m241 46 c23 -57 42 -106 42 -110 0 -5
-40 -8 -90 -8 -49 0 -90 3 -90 8 0 13 84 212 90 212 3 0 25 -46 48 -102z"/>
<path d="M5360 985 l0 -295 225 0 225 0 0 55 0 55 -160 0 -160 0 0 70 0 70
140 0 140 0 0 50 0 50 -140 0 -140 0 0 65 0 65 155 0 155 0 0 55 0 55 -220 0
-220 0 0 -295z"/>
<path d="M7000 985 l0 -295 60 0 60 0 0 170 c0 94 3 170 8 170 4 0 43 -60 88
-132 76 -126 82 -133 115 -136 34 -3 34 -2 119 140 l85 143 3 -177 2 -178 60
0 60 0 0 295 0 295 -53 0 -53 0 -109 -185 c-60 -101 -111 -182 -113 -180 -3 2
-53 84 -111 182 l-107 178 -57 3 -57 3 0 -296z"/>
<path d="M7810 985 l0 -295 225 0 225 0 0 55 0 55 -160 0 -160 0 0 70 0 70
135 0 135 0 0 50 0 50 -135 0 -135 0 0 65 0 65 155 0 155 0 0 55 0 55 -220 0
-220 0 0 -295z"/>
<path d="M8370 985 l0 -295 65 0 65 0 2 181 3 182 149 -182 148 -181 54 0 54
0 0 295 0 295 -65 0 -65 0 -2 -179 -3 -180 -145 177 -145 177 -58 3 -57 3 0
-296z"/>
<path d="M8990 1225 l0 -55 95 0 95 0 0 -240 0 -240 65 0 65 0 0 240 0 240 95
0 95 0 0 55 0 55 -255 0 -255 0 0 -55z"/>
</g>
</svg>
